<svg preserveAspectRatio="none" overflow="visible" style="display: block;" width="50" height="50" viewBox="0 0 50 50" fill="none" xmlns="http://www.w3.org/2000/svg">
<g id="The Challenges_b" clip-path="url(#clip0_0_151)">
<g id="Vector" filter="url(#filter0_d_0_151)">
<path d="M26.8445 37.9435C26.8133 39.1138 25.8905 39.8238 24.9709 39.8153C23.9889 39.8063 23.1929 39.0372 23.1572 37.9784L23.1016 36.3272C20.2116 35.8586 17.8487 33.9103 17.5938 30.9645C17.4937 29.8075 18.0864 28.847 19.1588 28.6901C20.213 28.5358 21.2388 29.2512 21.2848 30.5285C21.3701 32.8965 25.713 33.6722 28.0182 31.95C28.815 31.3548 28.8176 30.2398 28.5463 29.2943C28.3623 28.6531 27.5418 27.9181 26.706 27.604L22.0202 25.8434C18.5621 24.544 16.6747 20.7132 18.0426 17.2577C18.8785 15.1461 20.9034 14.0945 23.0875 13.6592L23.1577 12.0303C23.2048 10.9356 24.0068 10.184 24.9757 10.185C26.0882 10.1862 26.8516 11.0463 26.8654 12.2104L26.8819 13.6018C30.0902 14.2562 32.6816 16.5292 32.3483 19.6929C32.2493 20.6331 31.3626 21.2863 30.5723 21.2736C29.6118 21.2583 28.7888 20.5883 28.7184 19.4907C28.5593 17.0116 24.2154 16.3109 21.9171 18.084C21.213 18.6273 21.1803 19.7069 21.4046 20.5331C21.5813 21.1837 22.3355 22.0083 23.1481 22.3147L27.9898 24.1401C31.4771 25.4549 33.354 29.3179 31.9149 32.7877C31.0528 34.8663 29.0028 35.9339 26.8872 36.3401L26.8445 37.9435Z" fill="#1866EF"/>
<path d="M40.7283 35.2994L37.319 39.4816L38.7876 39.555L38.7886 47.0421C38.7887 47.8458 38.1683 48.427 37.4182 48.4205C36.7205 48.4145 36.1095 47.8312 36.1079 47.026L36.0983 42.2325L35.0355 42.2177C34.4972 42.2102 33.8524 41.8047 33.6461 41.4203C33.3448 40.8589 33.3348 40.1234 33.7262 39.6468L38.942 33.2963C40.0162 31.9883 41.8652 32.4109 42.8149 33.5844L47.6155 39.5163C47.9184 39.8906 47.9484 40.6716 47.7858 41.0824C47.625 41.4887 46.9961 42.0214 46.5178 42.0421L45.1746 42.1003L45.1721 47.0349C45.1717 47.8531 44.5289 48.4232 43.8015 48.415C43.1011 48.4071 42.4725 47.8395 42.4722 47.0311L42.4691 39.4309L44.0536 39.3762L40.7283 35.2994Z" fill="#1866EF"/>
<path d="M32.1729 46.0976C31.693 45.3898 30.8408 45.03 30.0106 45.2354C28.4059 45.6326 26.7286 45.8452 25.0011 45.8452C13.16 45.8452 3.62448 35.974 4.1746 24.0117C4.6658 13.3306 13.335 4.66119 24.016 4.1696C35.9786 3.61902 45.8503 13.1547 45.8503 24.996C45.8503 26.4714 45.6937 27.9096 45.4006 29.2977C45.229 30.1102 45.5622 30.9555 46.2565 31.411C46.2689 31.4192 46.2813 31.4273 46.2937 31.4355C47.5065 32.2388 49.1593 31.6048 49.4601 30.1815C49.8125 28.5146 49.999 26.7865 50 25.0149C50.0079 11.4378 38.9966 0.227002 25.4214 0.00347167C11.3058 -0.228958 -0.188328 11.2397 0.00233834 25.3458C0.184882 38.8511 11.2513 49.8692 24.7572 49.9988C26.9286 50.0197 29.0352 49.7606 31.046 49.2586C32.4234 48.9148 32.999 47.3059 32.1977 46.1341C32.1894 46.122 32.1811 46.1098 32.1729 46.0976Z" fill="#1866EF"/>
</g>
</g>
<defs>
<filter id="filter0_d_0_151" x="-4" y="-4" width="58" height="58" filterUnits="userSpaceOnUse" color-interpolation-filters="sRGB">
<feFlood flood-opacity="0" result="BackgroundImageFix"/>
<feColorMatrix in="SourceAlpha" type="matrix" values="0 0 0 0 0 0 0 0 0 0 0 0 0 0 0 0 0 0 127 0" result="hardAlpha"/>
<feOffset/>
<feGaussianBlur stdDeviation="2"/>
<feComposite in2="hardAlpha" operator="out"/>
<feColorMatrix type="matrix" values="0 0 0 0 0.0941176 0 0 0 0 0.4 0 0 0 0 0.937255 0 0 0 1 0"/>
<feBlend mode="normal" in2="BackgroundImageFix" result="effect1_dropShadow_0_151"/>
<feBlend mode="normal" in="SourceGraphic" in2="effect1_dropShadow_0_151" result="shape"/>
</filter>
<clipPath id="clip0_0_151">
<rect width="50" height="50" fill="white"/>
</clipPath>
</defs>
</svg>
