<svg width="50" height="50" viewBox="0 0 50 50" fill="none" xmlns="http://www.w3.org/2000/svg">
<g clip-path="url(#clip0_1918_4121)">
<path d="M13.2931 46.5687L0.113281 50L3.62336 37.1677C-3.10863 25.4484 0.759899 10.6091 12.2281 3.62154C23.3495 -3.15472 37.7334 -0.151107 45.2682 10.3706C52.8103 20.9024 50.9634 35.5838 40.8456 43.9232C33.1749 50.2614 22.3203 51.4786 13.2931 46.5687ZM6.0619 44.1181L13.8774 42.0772C20.6023 46.432 29.2471 46.4745 35.9375 42.3045C46.657 35.6005 48.9055 21.1746 40.9199 11.5987C32.9438 2.03422 18.3604 1.6404 9.85065 10.959C3.47762 17.9377 2.66856 28.5452 8.13837 36.4771L6.0619 44.1181Z" fill="white"/>
<path d="M31.9923 27.8706L37.6047 30.5922C37.992 33.6011 36.4258 35.5654 33.5912 36.433C31.7356 37.0009 29.9422 36.6148 28.1649 36.0273C22.164 34.0436 18.1213 30.2417 14.6167 25.0865C12.3392 21.7363 11.5143 17.8684 14.1623 14.647C15.0162 13.6081 15.9021 13.1657 17.319 13.3356C17.8672 13.4014 18.4685 13.3703 18.7483 14.0475L21.0345 19.5818C20.6767 21.1792 19.1384 22.095 18.906 22.844C18.8374 23.0649 19.0602 23.5034 19.2077 23.7485C21.168 27.0065 23.9771 29.4744 27.5151 30.8645C27.7989 30.976 28.3748 31.1491 28.5828 30.9241C29.438 29.9989 30.1003 29.1673 30.8469 28.1695C31.0524 27.8949 31.5585 27.6602 31.9923 27.8706Z" fill="white"/>
</g>
<defs>
<clipPath id="clip0_1918_4121">
<rect width="50" height="50" fill="white"/>
</clipPath>
</defs>
</svg>
