<svg width="16" height="16" viewBox="0 0 16 16" fill="none" xmlns="http://www.w3.org/2000/svg">
<g clip-path="url(#clip0_0_6)">
<path d="M8.79209 10.5554C10.2034 10.1281 11.0011 8.63757 10.5738 7.22625C10.1465 5.81492 8.65597 5.01722 7.24464 5.44454C5.83331 5.87185 5.03562 7.36237 5.46293 8.77369C5.89025 10.185 7.38076 10.9827 8.79209 10.5554Z" fill="white"/>
<path d="M15.8324 2.82075C15.5585 1.46453 14.5559 0.456716 13.1984 0.185713C12.4111 0.0285518 11.6344 -0.0172424 10.8135 -0.0173725L5.29024 -0.0183101C4.44779 -0.0184658 3.64862 0.0230829 2.84039 0.185361C1.48263 0.457965 0.4781 1.46459 0.204871 2.82062C0.0462246 3.60793 0.00125071 4.38448 0.00109498 5.20532L5.75468e-07 10.7286C-0.000181825 11.5723 0.0429435 12.3688 0.204064 13.1803C0.472996 14.5347 1.48453 15.5421 2.84044 15.814C3.6712 15.9806 4.49133 16.0191 5.35576 16.0191L10.6823 16.0188C11.5648 16.0187 12.3987 15.9874 13.2811 15.7928C14.5993 15.502 15.5432 14.5207 15.819 13.2316C15.9721 12.5156 16.0322 11.8079 16.0323 11.0567L16.0324 4.94296C16.0325 4.21018 15.9735 3.51963 15.8324 2.82075ZM8.01847 12.115C5.74573 12.115 3.90331 10.2726 3.90331 7.99984C3.90331 5.72708 5.74573 3.88468 8.01847 3.88468C10.2912 3.88468 12.1336 5.72711 12.1336 7.99984C12.1336 10.2726 10.2912 12.115 8.01847 12.115ZM12.296 4.68333C11.7649 4.68333 11.3343 4.25277 11.3343 3.72164C11.3343 3.1905 11.7649 2.75994 12.296 2.75994C12.8271 2.75994 13.2577 3.19052 13.2577 3.72164C13.2577 4.25276 12.8272 4.68333 12.296 4.68333Z" fill="white"/>
</g>
<defs>
<clipPath id="clip0_0_6">
<rect width="16" height="16" fill="white"/>
</clipPath>
</defs>
</svg>
