<svg width="16" height="16" viewBox="0 0 16 16" fill="none" xmlns="http://www.w3.org/2000/svg">
<path d="M16 5.56177L15.9976 10.0616C15.9973 10.5912 15.8956 11.1296 15.7474 11.646C15.4346 12.7359 14.6459 13.2911 13.5563 13.4936C12.9868 13.5994 12.4362 13.6375 11.844 13.6374L4.15438 13.6367C3.55246 13.6367 2.99164 13.5828 2.41758 13.4555C1.41273 13.2327 0.621552 12.7008 0.285457 11.7045C0.101934 11.1605 0.00127484 10.6045 0.0011287 10.015L1.69616e-07 5.45229C-0.000129964 4.92537 0.0746146 4.42381 0.246563 3.94449C0.563452 3.06114 1.36877 2.66753 2.2636 2.51219C2.8825 2.40475 3.48177 2.36298 4.12288 2.36295L11.8442 2.36255C12.4779 2.36252 13.0695 2.40092 13.6825 2.50152C14.6772 2.66477 15.5158 3.10708 15.795 4.1189C15.9252 4.59081 16.0003 5.08023 16 5.56177ZM10.2906 8.37341C10.4795 8.27457 10.5544 8.06635 10.5477 7.90183C10.5408 7.72991 10.4478 7.55718 10.2777 7.46885L6.90566 5.71716C6.73259 5.62726 6.54227 5.65588 6.39468 5.74932C6.25718 5.83638 6.15677 5.99488 6.15673 6.1876L6.15611 9.65623C6.15608 9.85396 6.24878 10.0212 6.38492 10.107C6.54915 10.2105 6.73833 10.2313 6.91742 10.1376L10.2906 8.37341Z" fill="white"/>
</svg>
